# xmcd
#
# Track frame offsets:
#	150
#	15560
#	37413
#	59035
#	81756
#	95185
#
# Disc length: 1542 seconds
#
# Revision: 2
# Processed by: cddbd v1.5.2PL0 Copyright (c) Steve Scherf et al.
# Submitted via: EasyCDDAExtractor 10.5.1.1
#
DISCID=52060406
DTITLE=Rickie Lee Tanner
DYEAR=2007
DGENRE=country
TTITLE0=Highway to Nowhere
TTITLE1=If it weren't for Bad Luck
TTITLE2=Fastlane
TTITLE3=Inside
TTITLE4=1-900-Redneck-Love
TTITLE5=The Man in Your Dreams Tonight
EXTD=
EXTT0=
EXTT1=
EXTT2=
EXTT3=
EXTT4=
EXTT5=
PLAYORDER=
